<svg width="24" height="24" viewBox="0 0 24 24" fill="none"
    xmlns="http://www.w3.org/2000/svg">
    <path fill-rule="evenodd" clip-rule="evenodd" d="M17.7071 6.29295C18.0976 6.68348 18.0976 7.31664 17.7071 7.70717L6.70711 18.7072C6.31658 19.0977 5.68342 19.0977 5.29289 18.7072C4.90237 18.3166 4.90237 17.6835 5.29289 17.293L16.2929 6.29295C16.6834 5.90243 17.3166 5.90243 17.7071 6.29295Z" fill="currentColor" />
    <path d="M17.2444 5.28976C17.525 5.37167 17.9065 5.51528 18.1956 5.80438C18.4847 6.09349 18.6283 6.47491 18.7102 6.7556C18.8008 7.06593 18.8605 7.41695 18.9018 7.77002C18.9845 8.47874 19.0051 9.31062 18.999 10.0841C18.9929 10.8637 18.9594 11.6122 18.9276 12.1638C18.9117 12.4403 18.8962 12.6687 18.8845 12.8287C18.8788 12.908 18.8685 13.0376 18.865 13.0822L18.8649 13.0834C18.8185 13.6337 18.3347 14.0428 17.7844 13.9964C17.2341 13.95 16.8256 13.4663 16.872 12.916C16.8751 12.8765 16.8843 12.7594 16.8898 12.6837C16.9008 12.5323 16.9157 12.3139 16.9309 12.0489C16.9615 11.5175 16.9933 10.8042 16.9991 10.0685C17.0049 9.32676 16.9839 8.58995 16.9153 8.00194C16.8808 7.70664 16.8116 7.39689 16.7645 7.2355C16.6031 7.1884 16.2933 7.11918 15.998 7.0847C15.41 7.01605 14.6732 6.99506 13.9315 7.00086C13.1957 7.00662 12.4824 7.0384 11.951 7.06898C11.686 7.08423 11.4676 7.09911 11.3162 7.11011C11.2405 7.11561 11.1239 7.12479 11.0844 7.12791C10.5341 7.17425 10.0499 6.76578 10.0035 6.21548C9.95714 5.66514 10.3657 5.1814 10.916 5.13501L10.9183 5.13483C10.9638 5.13124 11.0926 5.12109 11.1713 5.11537C11.3312 5.10374 11.5597 5.08819 11.8361 5.07228C12.3878 5.04054 13.1363 5.00703 13.9158 5.00092C14.6893 4.99487 15.5212 5.01545 16.2299 5.0982C16.583 5.13942 16.934 5.19919 17.2444 5.28976Z" fill="currentColor" />
</svg>