<svg width="20" height="20" viewBox="0 0 20 20" fill="none" xmlns="http://www.w3.org/2000/svg">
  <path d="M13.75 7.19167C13.4083 7.19167 13.125 6.90833 13.125 6.56667V5.41667C13.125 4.54167 12.75 3.69167 12.1 3.1C11.4417 2.5 10.5917 2.225 9.69167 2.30833C8.19167 2.45 6.875 3.98333 6.875 5.58333V6.39167C6.875 6.73333 6.59167 7.01667 6.25 7.01667C5.90833 7.01667 5.625 6.73333 5.625 6.39167V5.575C5.625 3.33333 7.43333 1.26667 9.575 1.05833C10.825 0.941667 12.025 1.33333 12.9417 2.175C13.85 3 14.375 4.18333 14.375 5.41667V6.56667C14.375 6.90833 14.0917 7.19167 13.75 7.19167Z" fill="currentColor" />
  <path d="M12.5 18.9583H7.49997C3.64997 18.9583 2.9333 17.1667 2.74997 15.425L2.12497 10.4333C2.0333 9.53333 1.99997 8.24167 2.87497 7.275C3.62497 6.44167 4.86664 6.04167 6.66664 6.04167H13.3333C15.1416 6.04167 16.3833 6.45 17.125 7.275C17.9916 8.24167 17.9666 9.53333 17.875 10.4167L17.25 15.425C17.0666 17.1667 16.35 18.9583 12.5 18.9583ZM6.66664 7.29167C5.2583 7.29167 4.29164 7.56667 3.79997 8.11667C3.39164 8.56667 3.2583 9.25833 3.36664 10.2917L3.99164 15.2833C4.1333 16.6167 4.49997 17.7167 7.49997 17.7167H12.5C15.5 17.7167 15.8666 16.625 16.0083 15.3L16.6333 10.2917C16.7416 9.275 16.6083 8.58333 16.2 8.125C15.7083 7.56667 14.7416 7.29167 13.3333 7.29167H6.66664Z" fill="currentColor" />
  <path d="M12.85 10.9583C12.3833 10.9583 12.0083 10.5833 12.0083 10.125C12.0083 9.66666 12.3833 9.29166 12.8416 9.29166C13.3 9.29166 13.675 9.66666 13.675 10.125C13.675 10.5833 13.3083 10.9583 12.85 10.9583Z" fill="currentColor" />
  <path d="M7.01672 10.9583C6.55005 10.9583 6.17505 10.5833 6.17505 10.125C6.17505 9.66666 6.55005 9.29166 7.00838 9.29166C7.46672 9.29166 7.84172 9.66666 7.84172 10.125C7.84172 10.5833 7.47505 10.9583 7.01672 10.9583Z" fill="currentColor" />
</svg>