<svg width="17" height="17" viewBox="0 0 17 17" fill="none"
    xmlns="http://www.w3.org/2000/svg">
    <path d="M13.5938 4.19483C13.7248 4.54787 13.5448 4.94025 13.1917 5.07124C12.4698 5.3391 11.6778 5.89664 10.876 6.63331C10.0818 7.36297 9.31645 8.2323 8.64502 9.07548C7.97493 9.91699 7.40668 10.7219 7.00576 11.3169C6.80554 11.6141 6.64764 11.858 6.54027 12.0268C6.4866 12.1113 6.44559 12.1768 6.41828 12.2209L6.38771 12.2704L6.38038 12.2824L6.37874 12.2851C6.2535 12.4915 6.02807 12.6169 5.78662 12.6138C5.54513 12.6106 5.32332 12.48 5.20349 12.2703C4.55629 11.1377 4.02163 10.6277 3.69993 10.4025C3.54008 10.2906 3.43132 10.2479 3.38349 10.2326C3.3722 10.2291 3.3639 10.2269 3.35869 10.2256C3.00568 10.1998 2.72729 9.90524 2.72729 9.54564C2.72729 9.16908 3.03256 8.86382 3.40911 8.86382C3.48957 8.86924 3.67977 8.89071 3.79695 8.9332C3.98349 8.99256 4.21565 9.09897 4.48193 9.28537C4.8636 9.55254 5.31148 9.98105 5.7995 10.6672L5.87488 10.5549C6.28989 9.939 6.87973 9.10327 7.57828 8.22603C8.2755 7.35046 9.0894 6.42292 9.95338 5.62914C10.8097 4.84236 11.7548 4.14991 12.7174 3.79277C13.0704 3.66178 13.4628 3.84179 13.5938 4.19483Z" fill="currentColor" />
</svg>