<svg width="24" height="24" viewBox="0 0 24 24" fill="none" xmlns="http://www.w3.org/2000/svg">
  <path fill-rule="evenodd" clip-rule="evenodd" d="M15.5303 3.54969C15.8232 3.84258 15.8232 4.31745 15.5303 4.61035L9.01033 11.1303C8.53322 11.6075 8.53322 12.3926 9.01033 12.8697L15.5303 19.3897C15.8232 19.6826 15.8232 20.1575 15.5303 20.4503C15.2374 20.7432 14.7626 20.7432 14.4697 20.4503L7.94967 13.9303C6.88677 12.8675 6.88677 11.1326 7.94967 10.0697L14.4697 3.54969C14.7626 3.25679 15.2374 3.25679 15.5303 3.54969Z" fill="currentColor" />
  <path d="M14.2931 3.37299C14.6837 2.98255 15.3167 2.9825 15.7072 3.37299C16.0976 3.7635 16.0976 4.39655 15.7072 4.78706L9.18668 11.3076C8.80764 11.6871 8.80737 12.314 9.18668 12.6933L15.7072 19.2128C16.0977 19.6033 16.0976 20.2364 15.7072 20.6269C15.3167 21.0174 14.6837 21.0174 14.2931 20.6269L7.77262 14.1074C6.61212 12.9468 6.6121 11.053 7.77262 9.89252L14.2931 3.37299ZM15.3537 3.72651C15.1584 3.53127 14.8419 3.53132 14.6466 3.72651L8.12614 10.246C7.16088 11.2113 7.16089 12.7886 8.12614 13.7539L14.6466 20.2734C14.8419 20.4686 15.1584 20.4686 15.3537 20.2734C15.5488 20.0781 15.5489 19.7616 15.3537 19.5664L8.83317 13.0468C8.25859 12.4722 8.25887 11.5288 8.83317 10.954L15.3537 4.43354C15.5488 4.2383 15.5488 3.92175 15.3537 3.72651Z" fill="currentColor" />
</svg>