<svg width="24" height="24" viewBox="0 0 24 24" fill="none" xmlns="http://www.w3.org/2000/svg">
  <path fill-rule="evenodd" clip-rule="evenodd" d="M8.3797 3.54969C8.6726 3.25679 9.14747 3.25679 9.44036 3.54969L15.9604 10.0697C17.0233 11.1326 17.0233 12.8675 15.9604 13.9303L9.44036 20.4503C9.14747 20.7432 8.6726 20.7432 8.3797 20.4503C8.08681 20.1575 8.08681 19.6826 8.3797 19.3897L14.8997 12.8697C15.3768 12.3926 15.3768 11.6075 14.8997 11.1303L8.3797 4.61035C8.08681 4.31745 8.08681 3.84258 8.3797 3.54969Z" fill="currentColor" />
  <path d="M8.20299 3.37297C8.59351 2.98245 9.22653 2.98245 9.61705 3.37297L16.1376 9.8925C17.298 11.053 17.298 12.9468 16.1376 14.1073L9.61705 20.6269C9.22653 21.0174 8.59351 21.0174 8.20299 20.6269C7.81254 20.2363 7.81249 19.6033 8.20299 19.2128L14.7225 12.6933C15.102 12.3138 15.102 11.687 14.7225 11.3075L8.20299 4.78703C7.81246 4.39651 7.81246 3.7635 8.20299 3.37297ZM9.26354 3.72649C9.06827 3.53122 8.75177 3.53122 8.5565 3.72649C8.36124 3.92175 8.36124 4.23826 8.5565 4.43352L15.076 10.954C15.6508 11.5288 15.6508 12.4721 15.076 13.0468L8.5565 19.5663C8.36127 19.7616 8.36132 20.0781 8.5565 20.2734C8.75177 20.4686 9.06827 20.4686 9.26354 20.2734L15.784 13.7538C16.7492 12.7886 16.7493 11.2113 15.784 10.246L9.26354 3.72649Z" fill="currentColor" />
</svg>