<svg width="64" height="64" viewBox="0 0 64 64" fill="none" xmlns="http://www.w3.org/2000/svg">
  <g opacity="0.4" clip-path="url(#clip0_9227_969)">
    <path d="M26.3794 48.2776C28.422 46.3735 28.7366 43.391 27.082 41.616C25.4273 39.841 22.4301 39.9457 20.3875 41.8498C18.3448 43.7539 18.0303 46.7364 19.6849 48.5114C21.3396 50.2864 24.3368 50.1817 26.3794 48.2776Z" fill="black" />
    <path d="M53.4068 48.2795C55.4494 46.3754 55.7639 43.3929 54.1093 41.6179C52.4547 39.8429 49.4574 39.9476 47.4148 41.8517C45.3722 43.7558 45.0576 46.7384 46.7123 48.5133C48.3669 50.2883 51.3641 50.1837 53.4068 48.2795Z" fill="black" />
    <path d="M4.94624 24.9731C4.94624 23.7943 3.99065 22.8387 2.81187 22.8387C1.63308 22.8387 0.67749 23.7943 0.67749 24.9731C0.67749 26.1519 1.63308 27.1075 2.81187 27.1075C3.99065 27.1075 4.94624 26.1519 4.94624 24.9731Z" fill="black" />
    <path d="M43.3112 44.6175C44.0699 40.8675 47.6124 37.8875 51.4199 37.8875C55.0862 37.8875 57.7287 40.6512 57.6562 44.205C61.6212 44.3087 62.7249 39.0875 62.7249 39.0875C63.0587 37.6275 63.5574 34.7812 63.9749 31.9875C64.1118 31.1249 64.0066 30.2413 63.6712 29.435C62.6347 27.0155 61.3822 24.6944 59.9287 22.5C58.5537 20.4487 56.2474 19.2337 53.6149 19.19C52.0449 19.165 50.5037 19.15 49.3399 19.15L49.3299 19.14C49.1799 16.63 47.3499 14.7075 44.7812 14.4775C43.1099 14.3287 36.4899 14.22 33.3124 14.22C32.0499 14.22 30.2387 14.2375 28.4062 14.2675V14.26H6.35869C6.07827 14.2598 5.80057 14.3149 5.54147 14.4222C5.28236 14.5294 5.04694 14.6866 4.84865 14.8849C4.65037 15.0832 4.49311 15.3186 4.38587 15.5777C4.27864 15.8369 4.22353 16.1146 4.22369 16.395V16.405C4.22369 16.9686 4.44758 17.5091 4.84609 17.9076C5.2446 18.3061 5.78511 18.53 6.34869 18.53H10.7899C11.3247 18.5694 11.8248 18.8096 12.19 19.2023C12.5551 19.595 12.7582 20.1112 12.7587 20.6475V20.6587C12.7595 20.9394 12.705 21.2175 12.5982 21.4771C12.4914 21.7367 12.3345 21.9727 12.1365 22.1716C11.9384 22.3704 11.703 22.5283 11.4439 22.6361C11.1847 22.744 10.9069 22.7996 10.6262 22.8H8.34869C7.78279 22.8 7.24006 23.0248 6.8399 23.4249C6.43975 23.8251 6.21494 24.3678 6.21494 24.9337C6.21478 25.214 6.26985 25.4916 6.377 25.7507C6.48416 26.0097 6.64131 26.2451 6.83946 26.4433C7.03761 26.6416 7.27289 26.7989 7.53185 26.9062C7.79081 27.0135 8.06838 27.0687 8.34869 27.0687H10.6262C11.1924 27.0687 11.7355 27.2937 12.1359 27.694C12.5363 28.0944 12.7612 28.6375 12.7612 29.2037C12.7612 29.77 12.5363 30.313 12.1359 30.7134C11.7355 31.1138 11.1924 31.3387 10.6262 31.3387H2.10619C1.54017 31.3387 0.997314 31.5635 0.59696 31.9636C0.196606 32.3637 -0.0284772 32.9065 -0.0288086 33.4725C-0.0288086 34.0387 0.196128 34.5818 0.596518 34.9821C0.996909 35.3825 1.53995 35.6075 2.10619 35.6075H10.6262C11.1924 35.6075 11.7355 35.8324 12.1359 36.2328C12.5363 36.6332 12.7612 37.1762 12.7612 37.7425C12.7605 38.3083 12.5353 38.8507 12.135 39.2505C11.7347 39.6504 11.192 39.875 10.6262 39.875H7.99119C7.42529 39.875 6.88256 40.0998 6.4824 40.4999C6.08225 40.9001 5.85744 41.4428 5.85744 42.0087C5.85744 42.5747 6.08221 43.1176 6.48233 43.518C6.88245 43.9183 7.42517 44.1434 7.99119 44.1437L16.3987 44.1375L17.0974 42.3962C18.5287 39.7562 21.3762 37.8862 24.3912 37.8862C28.1999 37.8862 30.9049 40.8687 30.6074 44.6212H43.3099M22.1349 23.7937H19.2699C19.2672 23.7939 19.2647 23.795 19.2626 23.7968C19.2606 23.7986 19.2592 23.8011 19.2587 23.8037L18.9949 25.6787C18.9946 25.6802 18.9945 25.6818 18.9948 25.6833C18.9952 25.6848 18.9958 25.6863 18.9968 25.6875C18.9978 25.6887 18.999 25.6897 19.0004 25.6903C19.0018 25.691 19.0034 25.6913 19.0049 25.6912H21.1374C21.2421 25.6882 21.3461 25.7087 21.4419 25.751C21.5377 25.7933 21.6228 25.8565 21.6911 25.9359C21.7593 26.0153 21.809 26.1089 21.8365 26.21C21.864 26.311 21.8686 26.4169 21.8499 26.52C21.8134 26.7465 21.699 26.9531 21.5266 27.1044C21.3541 27.2557 21.1343 27.3421 20.9049 27.3487H18.7699C18.7673 27.3487 18.7648 27.3495 18.7628 27.3511C18.7607 27.3527 18.7593 27.3549 18.7587 27.3575L18.3762 30.0812C18.3397 30.3077 18.2253 30.5144 18.0528 30.6656C17.8803 30.8169 17.6605 30.9033 17.4312 30.91C17.3266 30.913 17.2226 30.8926 17.1268 30.8502C17.0311 30.8079 16.946 30.7447 16.8779 30.6653C16.8097 30.5858 16.7601 30.4922 16.7328 30.3911C16.7055 30.2901 16.7011 30.1842 16.7199 30.0812L17.7124 23.0162C17.7518 22.777 17.873 22.5589 18.0555 22.3993C18.2379 22.2397 18.4701 22.1484 18.7124 22.1412H22.3662C22.4708 22.1382 22.5748 22.1586 22.6706 22.2009C22.7663 22.2433 22.8514 22.3065 22.9195 22.3859C22.9877 22.4654 23.0373 22.559 23.0646 22.6601C23.0919 22.7611 23.0963 22.867 23.0774 22.97C23.0404 23.1953 22.9261 23.4008 22.7541 23.5511C22.5821 23.7014 22.3632 23.7872 22.1349 23.7937ZM29.7924 22.7037C30.0901 22.9678 30.2995 23.3168 30.3924 23.7037C30.4964 24.142 30.5133 24.5964 30.4424 25.0412C30.3555 25.7334 30.0723 26.3862 29.6262 26.9225C29.3538 27.2446 29.0078 27.4962 28.6174 27.6562C28.6157 27.6581 28.6147 27.6605 28.6147 27.6631C28.6147 27.6657 28.6157 27.6681 28.6174 27.67L29.3274 29.7187C29.5187 30.2687 29.0274 30.91 28.4162 30.91H28.3762C28.2279 30.9143 28.0821 30.8714 27.9598 30.7873C27.8376 30.7033 27.7452 30.5825 27.6962 30.4425L26.8374 27.9425C26.8362 27.9406 26.8346 27.939 26.8326 27.9379C26.8306 27.9369 26.8284 27.9363 26.8262 27.9362H25.0012C24.9986 27.9364 24.9962 27.9373 24.9942 27.9388C24.9922 27.9404 24.9907 27.9425 24.9899 27.945L24.6899 30.08C24.6534 30.3065 24.539 30.5131 24.3666 30.6644C24.1941 30.8157 23.9743 30.9021 23.7449 30.9087C23.6403 30.9117 23.5363 30.8913 23.4406 30.849C23.3448 30.8067 23.2598 30.7435 23.1916 30.664C23.1234 30.5846 23.0739 30.4909 23.0466 30.3899C23.0192 30.2888 23.0148 30.1829 23.0337 30.08L24.0262 23.015C24.0655 22.7758 24.1868 22.5577 24.3692 22.3981C24.5516 22.2384 24.7839 22.1472 25.0262 22.14H27.8512C27.8512 22.14 29.0912 22.1012 29.7924 22.7037ZM37.5674 22.9112C37.5335 23.1228 37.4267 23.3158 37.2656 23.4571C37.1045 23.5984 36.8991 23.6789 36.6849 23.685H33.3987C33.3961 23.6851 33.3937 23.686 33.3917 23.6876C33.3897 23.6891 33.3882 23.6913 33.3874 23.6937L33.1262 25.5487C33.1258 25.5502 33.1258 25.5518 33.1261 25.5533C33.1264 25.5548 33.1271 25.5563 33.1281 25.5575C33.129 25.5587 33.1303 25.5597 33.1317 25.5603C33.1331 25.561 33.1346 25.5613 33.1362 25.5612H35.6887C35.7864 25.5583 35.8836 25.5773 35.9731 25.6168C36.0625 25.6563 36.142 25.7153 36.2058 25.7894C36.2695 25.8636 36.3159 25.9511 36.3415 26.0455C36.3671 26.1399 36.3712 26.2388 36.3537 26.335C36.3197 26.5465 36.213 26.7396 36.0518 26.8808C35.8907 27.0221 35.6854 27.1027 35.4712 27.1087H32.9174C32.9149 27.1089 32.9125 27.1098 32.9104 27.1113C32.9084 27.1129 32.9069 27.115 32.9062 27.1175L32.5924 29.35C32.5924 29.3531 32.5936 29.3561 32.5956 29.3584C32.5977 29.3607 32.6006 29.3622 32.6037 29.3625H35.8874C35.9852 29.3596 36.0824 29.3786 36.1718 29.4181C36.2613 29.4575 36.3408 29.5165 36.4045 29.5907C36.4683 29.6649 36.5146 29.7523 36.5402 29.8467C36.5658 29.9411 36.57 30.04 36.5524 30.1362C36.5185 30.3478 36.4117 30.5408 36.2506 30.6821C36.0895 30.8234 35.8841 30.9039 35.6699 30.91H31.5949C31.485 30.9115 31.376 30.8889 31.2758 30.8436C31.1756 30.7984 31.0866 30.7316 31.015 30.6481C30.9434 30.5646 30.8911 30.4664 30.8617 30.3605C30.8323 30.2545 30.8266 30.1434 30.8449 30.035L31.8312 23.02C31.8705 22.7808 31.9918 22.5627 32.1742 22.4031C32.3566 22.2434 32.5889 22.1522 32.8312 22.145H36.9049C37.0017 22.1427 37.0978 22.1618 37.1863 22.201C37.2749 22.2403 37.3536 22.2986 37.4169 22.3718C37.4803 22.4451 37.5266 22.5314 37.5526 22.6247C37.5786 22.7179 37.5837 22.8158 37.5674 22.9112ZM44.3937 22.9112C44.3597 23.1228 44.253 23.3158 44.0918 23.4571C43.9307 23.5984 43.7254 23.6789 43.5112 23.685H40.2249C40.2224 23.6851 40.22 23.686 40.2179 23.6876C40.2159 23.6891 40.2145 23.6913 40.2137 23.6937L39.9537 25.5487C39.9533 25.5502 39.9533 25.5518 39.9536 25.5533C39.9539 25.5548 39.9546 25.5563 39.9556 25.5575C39.9565 25.5587 39.9578 25.5597 39.9592 25.5603C39.9606 25.561 39.9621 25.5613 39.9637 25.5612H42.5162C42.6139 25.5583 42.7111 25.5773 42.8006 25.6168C42.89 25.6563 42.9695 25.7153 43.0333 25.7894C43.097 25.8636 43.1434 25.9511 43.169 26.0455C43.1946 26.1399 43.1987 26.2388 43.1812 26.335C43.1472 26.5465 43.0405 26.7396 42.8793 26.8808C42.7182 27.0221 42.5129 27.1027 42.2987 27.1087H39.7437C39.7411 27.1089 39.7387 27.1098 39.7367 27.1113C39.7347 27.1129 39.7332 27.115 39.7324 27.1175L39.4187 29.35C39.4187 29.3531 39.4198 29.3561 39.4219 29.3584C39.424 29.3607 39.4268 29.3622 39.4299 29.3625H42.7137C42.8114 29.3596 42.9086 29.3786 42.9981 29.4181C43.0875 29.4575 43.1671 29.5165 43.2308 29.5907C43.2945 29.6649 43.3409 29.7523 43.3665 29.8467C43.3921 29.9411 43.3962 30.04 43.3787 30.1362C43.3447 30.3478 43.238 30.5408 43.0768 30.6821C42.9157 30.8234 42.7104 30.9039 42.4962 30.91H38.4212C38.3112 30.9115 38.2023 30.8889 38.1021 30.8436C38.0019 30.7984 37.9128 30.7316 37.8412 30.6481C37.7697 30.5646 37.7174 30.4664 37.688 30.3605C37.6586 30.2545 37.6529 30.1434 37.6712 30.035L38.6574 23.02C38.6968 22.7808 38.818 22.5627 39.0005 22.4031C39.1829 22.2434 39.4151 22.1522 39.6574 22.145H43.7312C43.828 22.1427 43.9241 22.1618 44.0126 22.201C44.1011 22.2403 44.1799 22.2986 44.2432 22.3718C44.3065 22.4451 44.3528 22.5314 44.3789 22.6247C44.4049 22.7179 44.4099 22.8158 44.3937 22.9112ZM49.1437 22.11C50.2599 22.11 51.7049 22.125 53.1549 22.1487C54.9124 22.1775 56.4499 22.985 57.3724 24.3625C58.3578 25.848 59.2435 27.3972 60.0237 29C60.4362 29.84 59.6774 30.9337 58.6837 30.9337H48.0274L49.1437 22.11Z" fill="black" />
    <path d="M27.1825 26.39H25.2075L25.5825 23.685H27.5563C27.5563 23.685 29.005 23.5912 28.7675 25.0375C28.7738 25.0375 28.6075 26.39 27.1825 26.39Z" fill="black" />
  </g>
  <defs>
    <clipPath id="clip0_9227_969">
      <rect width="64" height="64" fill="white" />
    </clipPath>
  </defs>
</svg>