<svg width="18" height="18" viewBox="0 0 18 18" fill="none" xmlns="http://www.w3.org/2000/svg">
  <path d="M15.03 5.115L10.71 2.0925C9.53249 1.2675 7.72499 1.3125 6.59249 2.19L2.83499 5.1225C2.08499 5.7075 1.49249 6.9075 1.49249 7.8525V13.0275C1.49249 14.94 3.04499 16.5 4.95749 16.5H13.0425C14.955 16.5 16.5075 14.9475 16.5075 13.035V7.95C16.5075 6.9375 15.855 5.6925 15.03 5.115ZM9.56249 13.5C9.56249 13.8075 9.30749 14.0625 8.99999 14.0625C8.69249 14.0625 8.43749 13.8075 8.43749 13.5V11.25C8.43749 10.9425 8.69249 10.6875 8.99999 10.6875C9.30749 10.6875 9.56249 10.9425 9.56249 11.25V13.5Z" fill="currentColor" />
</svg>