<svg width="20" height="20" viewBox="0 0 20 20" fill="none" xmlns="http://www.w3.org/2000/svg">
  <rect width="20" height="20" rx="10" fill="black" />
  <rect width="20" height="20" rx="10" fill="url(#paint0_linear_11075_4)" />
  <rect width="20" height="20" rx="10" fill="url(#paint1_radial_11075_4)" />
  <path d="M10.0017 5.08152C11.6049 5.08152 11.7931 5.08867 12.4267 5.11726C13.0128 5.14346 13.3296 5.24113 13.5416 5.32451C13.8227 5.43409 14.0228 5.56273 14.2325 5.77237C14.4421 5.982 14.5731 6.18211 14.6803 6.46321C14.7613 6.67522 14.8614 6.99206 14.8876 7.57808C14.9162 8.21175 14.9233 8.39995 14.9233 10.0032C14.9233 11.6064 14.9162 11.7946 14.8876 12.4283C14.8614 13.0143 14.7637 13.3311 14.6803 13.5431C14.5707 13.8242 14.4421 14.0244 14.2325 14.234C14.0228 14.4436 13.8227 14.5746 13.5416 14.6818C13.3296 14.7628 13.0128 14.8629 12.4267 14.8891C11.7931 14.9177 11.6049 14.9248 10.0017 14.9248C8.39842 14.9248 8.21023 14.9177 7.57656 14.8891C6.99053 14.8629 6.6737 14.7652 6.46168 14.6818C6.18058 14.5723 5.98047 14.4436 5.77084 14.234C5.56121 14.0244 5.43018 13.8242 5.32298 13.5431C5.24199 13.3311 5.14194 13.0143 5.11573 12.4283C5.08714 11.7946 5.08 11.6064 5.08 10.0032C5.08 8.39995 5.08714 8.21175 5.11573 7.57808C5.14194 6.99206 5.23961 6.67522 5.32298 6.46321C5.43257 6.18211 5.56121 5.982 5.77084 5.77237C5.98047 5.56273 6.18058 5.43171 6.46168 5.32451C6.6737 5.24352 6.99053 5.14346 7.57656 5.11726C8.21023 5.08629 8.4008 5.08152 10.0017 5.08152ZM10.0017 4C8.37222 4 8.16735 4.00715 7.52653 4.03573C6.8881 4.06432 6.45215 4.16675 6.071 4.31445C5.67555 4.46691 5.34204 4.67417 5.00853 5.00768C4.67502 5.34119 4.47015 5.67708 4.31531 6.07014C4.16761 6.4513 4.06517 6.88724 4.03659 7.52806C4.008 8.16649 4.00085 8.37136 4.00085 10.0008C4.00085 11.6302 4.008 11.8351 4.03659 12.4759C4.06517 13.1143 4.16761 13.5503 4.31531 13.9338C4.46777 14.3293 4.67502 14.6628 5.00853 14.9963C5.34204 15.3298 5.67793 15.5347 6.071 15.6895C6.45215 15.8372 6.8881 15.9396 7.52891 15.9682C8.16973 15.9968 8.37222 16.004 10.004 16.004C11.6359 16.004 11.8383 15.9968 12.4792 15.9682C13.1176 15.9396 13.5535 15.8372 13.9371 15.6895C14.3325 15.5371 14.666 15.3298 14.9995 14.9963C15.333 14.6628 15.5379 14.3269 15.6928 13.9338C15.8405 13.5527 15.9429 13.1167 15.9715 12.4759C16.0001 11.8351 16.0072 11.6326 16.0072 10.0008C16.0072 8.36898 16.0001 8.16649 15.9715 7.52567C15.9429 6.88724 15.8405 6.4513 15.6928 6.06776C15.5403 5.67231 15.333 5.3388 14.9995 5.00529C14.666 4.67178 14.3301 4.46691 13.9371 4.31207C13.5559 4.16437 13.12 4.06194 12.4792 4.03335C11.836 4.00715 11.6311 4 10.0017 4Z" fill="white" />
  <path d="M10.0015 6.92059C8.30063 6.92059 6.91895 8.29989 6.91895 10.0032C6.91895 11.7065 8.29825 13.0858 10.0015 13.0858C11.7048 13.0858 13.0841 11.7065 13.0841 10.0032C13.0841 8.29989 11.7048 6.92059 10.0015 6.92059ZM10.0015 12.0018C8.89618 12.0018 8.00047 11.1061 8.00047 10.0008C8.00047 8.89544 8.89618 7.99973 10.0015 7.99973C11.1069 7.99973 12.0026 8.89544 12.0026 10.0008C12.0026 11.1061 11.1069 12.0018 10.0015 12.0018Z" fill="white" />
  <path d="M13.2056 7.51614C13.603 7.51614 13.9251 7.19404 13.9251 6.79671C13.9251 6.39938 13.603 6.07729 13.2056 6.07729C12.8083 6.07729 12.4862 6.39938 12.4862 6.79671C12.4862 7.19404 12.8083 7.51614 13.2056 7.51614Z" fill="white" />
  <defs>
    <linearGradient id="paint0_linear_11075_4" x1="1.16694" y1="1.05146" x2="7.47276" y2="25.4432" gradientUnits="userSpaceOnUse">
      <stop stop-color="#4E60D3" />
      <stop offset="0.142763" stop-color="#913BAF" />
      <stop offset="0.761458" stop-color="#D52D88" />
      <stop offset="1" stop-color="#F26D4F" />
    </linearGradient>
    <radialGradient id="paint1_radial_11075_4" cx="0" cy="0" r="1" gradientUnits="userSpaceOnUse" gradientTransform="translate(6.05487 20) rotate(32.1601) scale(18.6789 13.4426)">
      <stop stop-color="#FED276" />
      <stop offset="0.17024" stop-color="#FDBD61" stop-opacity="0.975006" />
      <stop offset="0.454081" stop-color="#F6804D" />
      <stop offset="1" stop-color="#E83D5C" stop-opacity="0.01" />
    </radialGradient>
  </defs>
</svg>