 <svg width="14" height="17" viewBox="0 0 14 17" fill="none" xmlns="http://www.w3.org/2000/svg">
  <path d="M13.1562 7.06992L1.9 0.183984C1.71022 0.067775 1.49287 0.00433455 1.27037 0.000214333C1.04788 -0.00390588 0.828324 0.0514435 0.634375 0.160546C0.442273 0.267954 0.282247 0.424592 0.170753 0.614352C0.0592589 0.804111 0.000320983 1.02014 0 1.24023V15.0105C0.00144747 15.3407 0.133933 15.6567 0.368331 15.8892C0.60273 16.1217 0.919857 16.2516 1.25 16.2504C1.48043 16.2503 1.70639 16.1868 1.90313 16.0668L13.1562 9.18086C13.3371 9.07061 13.4866 8.91569 13.5904 8.73099C13.6941 8.54628 13.7486 8.33801 13.7486 8.12617C13.7486 7.91433 13.6941 7.70606 13.5904 7.52136C13.4866 7.33665 13.3371 7.18173 13.1562 7.07148V7.06992Z" fill="currentColor" />
</svg>