<svg viewBox="0 0 20 20" fill="none" xmlns="http://www.w3.org/2000/svg">
  <path d="M9.16667 16.6667L9.16667 10.8333L3.33333 10.8333C2.8731 10.8333 2.5 10.4602 2.5 10C2.5 9.53976 2.8731 9.16667 3.33333 9.16667L9.16667 9.16667L9.16667 3.33333C9.16667 2.8731 9.53976 2.5 10 2.5C10.4602 2.5 10.8333 2.8731 10.8333 3.33333L10.8333 9.16667L16.6667 9.16667L16.7521 9.17074C17.1722 9.21351 17.5 9.5686 17.5 10C17.5 10.4314 17.1722 10.7865 16.7521 10.8293L16.6667 10.8333L10.8333 10.8333L10.8333 16.6667C10.8333 17.1269 10.4602 17.5 10 17.5C9.53976 17.5 9.16667 17.1269 9.16667 16.6667Z" fill="currentColor" />
</svg>