<svg width="20" height="20" viewBox="0 0 20 20" fill="none"
    xmlns="http://www.w3.org/2000/svg">
    <path d="M17.7083 10C17.7083 5.74327 14.2578 2.29167 10 2.29167C9.65482 2.29167 9.375 2.01184 9.375 1.66667C9.375 1.32149 9.65482 1.04167 10 1.04167C14.9483 1.04167 18.9583 5.05303 18.9583 10C18.9583 14.947 14.9483 18.9583 10 18.9583C9.65482 18.9583 9.375 18.6785 9.375 18.3333C9.375 17.9882 9.65482 17.7083 10 17.7083C14.2578 17.7083 17.7083 14.2567 17.7083 10Z" fill="currentColor" />
    <path d="M4.27813 16.0685C4.4915 15.7975 4.88418 15.7504 5.15541 15.9635C5.90487 16.5528 6.77164 17.0082 7.7018 17.325C8.02836 17.4364 8.20286 17.7918 8.09161 18.1185C7.98021 18.445 7.6248 18.6196 7.29815 18.5083C6.24791 18.1506 5.254 17.6313 4.38311 16.9466C4.11177 16.7333 4.06478 16.3399 4.27813 16.0685ZM1.55189 10.8472C1.89119 10.7839 2.21771 11.0076 2.28106 11.3468C2.44625 12.2322 2.78702 13.0964 3.27797 13.8859C3.46019 14.179 3.37006 14.5646 3.07696 14.7469C2.78384 14.9291 2.39821 14.839 2.21596 14.5459C1.64667 13.6304 1.24713 12.6209 1.05222 11.5763C0.988912 11.237 1.21263 10.9105 1.55189 10.8472ZM2.21596 5.4541C2.39821 5.16101 2.78384 5.07089 3.07696 5.25309C3.37006 5.43535 3.46019 5.82098 3.27797 6.11409C2.78702 6.90359 2.44625 7.76784 2.28106 8.65316C2.21771 8.99243 1.89119 9.21614 1.55189 9.15283C1.21263 9.08947 0.988912 8.76295 1.05222 8.42366C1.24713 7.37913 1.64667 6.36964 2.21596 5.4541ZM7.29815 1.4917C7.6248 1.38045 7.98021 1.55495 8.09161 1.88151C8.20286 2.20816 8.02836 2.56357 7.7018 2.67497C6.77489 2.99065 5.90604 3.45488 5.15215 4.0389C4.87928 4.2503 4.48627 4.20028 4.27487 3.92741C4.06372 3.65457 4.11365 3.26229 4.38637 3.05094C5.25285 2.37966 6.24462 1.85054 7.29815 1.4917Z" fill="currentColor" />
    <path d="M6.21171 13.3211C8.1737 11.2405 11.7904 11.1265 13.7955 13.3293C14.0279 13.5845 14.0093 13.9799 13.754 14.2122C13.4988 14.4446 13.1034 14.426 12.8711 14.1707C11.3847 12.5378 8.61393 12.5963 7.12154 14.1789C6.88474 14.43 6.48889 14.4417 6.23775 14.2049C5.98664 13.9681 5.97495 13.5723 6.21171 13.3211ZM11.2231 8.125C11.2231 7.42815 10.666 6.875 9.99345 6.875C9.32099 6.87513 8.76379 7.42823 8.76379 8.125C8.76379 8.82177 9.32099 9.37487 9.99345 9.375C10.666 9.375 11.2231 8.82185 11.2231 8.125ZM12.4731 8.125C12.4731 9.49921 11.3693 10.625 9.99345 10.625C8.61771 10.6249 7.51379 9.49913 7.51379 8.125C7.51379 6.75087 8.61771 5.62513 9.99345 5.625C11.3693 5.625 12.4731 6.75079 12.4731 8.125Z" fill="currentColor" />
</svg>