<svg width="55" height="47" viewBox="0 0 55 47" fill="none"
    xmlns="http://www.w3.org/2000/svg">
    <path d="M12.8723 47L1.83763e-06 40.4714C1.76959 36.8605 3.16813 33.0762 4.16709 29.1475C5.16606 25.1899 5.65127 20.5968 5.65127 15.3393V2.22864e-06H27.2574V15.5126C27.2574 19.0658 26.5724 22.7923 25.2024 26.721C23.8324 30.6497 22.0628 34.3762 19.8936 37.9293C17.7244 41.4825 15.384 44.5157 12.8723 47ZM40.6149 47L27.7426 40.4714C29.5122 36.8605 30.9107 33.0762 31.9097 29.1475C32.9087 25.1899 33.3939 20.5968 33.3939 15.3393V2.22864e-06H55V15.5126C55 19.0658 54.315 22.7923 52.945 26.721C51.575 30.6497 49.8054 34.3762 47.6362 37.9293C45.4671 41.4825 43.1266 44.5157 40.6149 47Z" fill="#FFC356" />
</svg>