<svg width="64" height="64" viewBox="0 0 64 64" fill="none" xmlns="http://www.w3.org/2000/svg">
  <g opacity="0.4">
    <path d="M20.4651 33.4227L23.2469 34.9913V38.7874L20.4651 37.2188V33.4227ZM28.6326 38.024L24.4077 35.6501V39.7809C24.4181 40.2097 23.9162 40.5129 23.5397 40.2829L19.5971 38.0659C19.4089 37.9613 19.3043 37.773 19.3043 37.5639V32.7743L15.0899 30.4004V45.8777L28.6326 53.7001V38.024ZM43.0955 45.8777V30.4108L29.7934 38.0136V53.5536L43.0955 45.8777ZM37.7098 27.42L25.0456 34.6671L29.2077 37.0096L42.5517 29.386L38.4418 27.0121L37.7098 27.42ZM34.4679 24.7219L21.0298 32.4187L23.8639 34.0083L37.2601 26.3428C37.0091 26.1964 34.7817 24.9101 34.4679 24.7219ZM15.6546 29.386C16.7004 29.9716 18.8128 31.1638 19.8586 31.7494L33.3071 24.0526L29.0927 21.6264L15.6546 29.386ZM50.51 20.6852C46.2433 14.0551 38.5569 9.65239 30.7032 9.255C30.3999 9.23408 30.1698 8.9831 30.1698 8.67983V5.33337L20.486 11.5975L30.1698 17.8617V14.9021C30.1698 14.5779 30.4417 14.306 30.7659 14.327C39.5608 14.3479 47.8224 20.6225 50.3636 29.0304C53.2499 37.5325 49.8511 47.4045 42.8445 52.8216C32.2614 61.1145 16.1775 57.7263 9.50549 46.1392C17.4115 61.0936 37.9503 62.976 48.7531 50.1026C55.7388 41.862 56.3872 29.7311 50.51 20.6852Z" fill="black" />
  </g>
</svg>