<svg width="11" height="20" viewBox="0 0 11 20" fill="none"
    xmlns="http://www.w3.org/2000/svg">
    <path d="M3.35466 3.53104C3.16868 2.75041 3.54862 2.0224 3.94436 1.43237C4.37999 0.78279 5.10684 0.207027 5.91861 0C5.77112 0.736463 5.34131 1.37172 4.92759 1.96896C4.51666 2.56232 3.99837 3.16326 3.35466 3.53104Z" fill="#FFC356" />
    <path d="M2.78818 5.02845C2.93336 4.41025 2.93014 3.73347 2.79193 3.15363C2.6704 2.64404 2.49355 1.92367 1.91149 1.6806C1.4884 2.35925 1.31833 3.28343 1.56491 3.97592C1.7432 4.47681 2.06383 5.13907 2.72878 5.24158C3.33896 5.38224 3.95595 5.05675 4.44324 4.78802C4.98508 4.48925 5.51581 4.01393 5.83827 3.44884C5.24674 3.15026 4.57309 3.39256 4.06629 3.62477C3.51999 3.87509 3.01813 4.41217 2.78818 5.02845Z" fill="#FFC356" />
    <path d="M0.909397 6.69665C1.20946 7.15444 1.67378 7.72784 2.3508 7.71151C2.96645 7.74226 3.49833 7.3221 3.91719 6.97144C4.3683 6.59376 4.77548 6.04145 4.94738 5.44435C4.31769 5.26116 3.71483 5.60054 3.26526 5.92064C2.7958 6.25497 2.43475 6.86682 2.35719 7.49506C2.35137 6.86567 2.18102 6.21561 1.90637 5.69194C1.65528 5.2132 1.30538 4.56607 0.68113 4.43671C0.435178 5.18163 0.513653 6.09306 0.909397 6.69665Z" fill="#FFC356" />
    <path d="M2.55106 10.1771C1.92273 10.2824 1.30982 9.8974 0.911766 9.44456C0.399293 8.86154 0.0943747 8.07943 0.15656 7.29645C0.802052 7.31283 1.29093 7.87082 1.65226 8.29275C2.04142 8.74717 2.36028 9.34504 2.51324 9.96179C2.44596 9.34715 2.65232 8.68345 3.03537 8.27334C3.40512 7.87745 3.92307 7.446 4.5675 7.51525C4.55362 8.13849 4.2412 8.73227 3.91898 9.17699C3.61863 9.59142 3.15595 10.104 2.55106 10.1771Z" fill="#FFC356" />
    <path d="M1.39032 12.248C1.96901 12.6248 2.67087 12.9977 3.40849 12.7155C4.01362 12.5014 4.39836 11.8923 4.63498 11.3332C4.88565 10.7408 5.05307 10.0577 4.93716 9.40933C4.27221 9.46835 3.72081 9.9441 3.42795 10.5249C3.12179 11.132 3.06306 11.8547 3.29825 12.4912C2.95075 11.8364 2.44256 11.3065 1.90423 10.8169C1.41487 10.3719 0.709984 9.90301 0 9.9912C0.135086 10.8689 0.670722 11.7796 1.39032 12.248Z" fill="#FFC356" />
    <path d="M4.89913 15.0884C5.4686 14.748 5.69778 14.0316 5.79144 13.4178C5.89241 12.7558 5.88808 12.0258 5.61315 11.3978C4.95248 11.5823 4.49897 12.177 4.34922 12.8283C4.19102 13.5164 4.32452 14.2498 4.70936 14.8357C4.1978 14.2488 3.51756 13.7642 2.86568 13.4243C2.236 13.0961 1.46349 12.7002 0.707275 12.9393C1.07193 13.8293 1.85198 14.6579 2.71651 15.0006C3.38603 15.266 4.20054 15.5284 4.89913 15.0884Z" fill="#FFC356" />
    <path d="M7.59878 15.3188C7.68235 15.9577 7.67999 16.7682 7.18391 17.26C6.56398 17.8945 5.60458 17.7721 4.86461 17.6325C3.87119 17.4449 2.75292 16.7673 2.15356 15.8652C2.88556 15.4621 3.7808 15.72 4.50549 15.9287L4.54686 15.9405C5.3558 16.1733 6.21783 16.5481 6.93877 17.0603C6.36344 16.5404 5.94424 15.7774 5.92372 15.0083C5.90527 14.3204 6.20385 13.5845 6.84636 13.2566C7.29492 13.8453 7.50497 14.6012 7.59878 15.3188Z" fill="#FFC356" />
    <path d="M10.4778 19.0692C10.8432 18.3738 10.4812 17.5576 10.1928 16.9543C9.85177 16.2412 9.38587 15.5144 8.71908 14.9924C8.07883 15.5442 8.13972 16.3337 8.33007 17.0198C8.55641 17.8357 9.34112 18.5311 10.1537 18.9275C9.21262 18.5765 8.18484 18.3659 7.20699 18.3037L7.10795 18.2973C6.32237 18.2461 5.29969 18.1795 4.67371 18.7544C5.62017 19.559 6.96455 20.0232 8.14942 19.9991C8.94346 19.983 10.0329 19.889 10.4778 19.0692Z" fill="#FFC356" />
</svg>