<svg width="11" height="20" viewBox="0 0 11 20" fill="none"
    xmlns="http://www.w3.org/2000/svg">
    <path d="M6.70479 1.43397C7.09985 2.02439 7.47904 2.75274 7.29257 3.53328C6.64904 3.16495 6.13144 2.56357 5.721 1.96989C5.30769 1.37221 4.87851 0.736665 4.73145 0C5.54318 0.20762 6.26985 0.783956 6.70479 1.43397Z" fill="#FFC356" />
    <path d="M7.85765 5.0318C7.6284 4.41504 7.12666 3.87725 6.58069 3.62642C6.07366 3.39381 5.40034 3.15106 4.80872 3.44913C5.13072 4.01451 5.66082 4.49025 6.20246 4.78948C6.68931 5.05852 7.30592 5.38446 7.91628 5.24437C8.58144 5.14248 8.90296 4.48031 9.08174 3.97938C9.32925 3.28717 9.16007 2.36273 8.73763 1.68359C8.15514 1.92635 7.97732 2.64657 7.85573 3.15615C7.71683 3.73619 7.71299 4.41326 7.85765 5.0318Z" fill="#FFC356" />
    <path d="M7.3795 5.92311C7.84856 6.25761 8.20853 6.86918 8.28591 7.49703C8.29264 6.86793 8.46374 6.21844 8.73864 5.69526C8.98999 5.21663 9.34083 4.56974 9.96513 4.4408C10.2102 5.18602 10.1309 6.09748 9.73444 6.70077C9.43455 7.15778 8.97029 7.73003 8.29456 7.7147C7.67795 7.74618 7.14545 7.32498 6.72636 6.97356C6.27556 6.59547 5.86897 6.04283 5.69788 5.44559C6.32746 5.26277 6.93013 5.60265 7.3795 5.92311Z" fill="#FFC356" />
    <path d="M8.12737 9.96742C8.1961 9.3522 7.9904 8.68705 7.60688 8.27608C7.23778 7.87988 6.72017 7.44801 6.07568 7.51678C6.08866 8.14008 6.40057 8.73419 6.72257 9.17918C7.02247 9.5937 7.48433 10.1064 8.08892 10.1802C8.71755 10.2867 9.33127 9.90186 9.73017 9.44904C10.243 8.86641 10.5486 8.08447 10.4876 7.30133C9.84167 7.31729 9.35242 7.87488 8.99053 8.29656C8.60028 8.7513 8.28068 9.34989 8.12737 9.96742Z" fill="#FFC356" />
    <path d="M7.21231 10.5276C7.51797 11.1351 7.57613 11.858 7.34015 12.4944C7.68811 11.8396 8.19706 11.31 8.73581 10.8207C9.22554 10.376 9.93107 9.90772 10.6409 9.99639C10.5054 10.8742 9.96855 11.7845 9.24861 12.2524C8.66997 12.6282 7.96877 13.0004 7.23201 12.7193C6.62598 12.5056 6.24101 11.8952 6.00456 11.3351C5.75416 10.7424 5.5874 10.0592 5.70418 9.41083C6.36885 9.47037 6.9201 9.9466 7.21231 10.5276Z" fill="#FFC356" />
    <path d="M5.92762 14.8365C6.3121 14.2511 6.44619 13.5184 6.28903 12.8306C6.14005 12.179 5.68684 11.584 5.02601 11.399C4.75063 12.0267 4.74582 12.7568 4.84579 13.419C4.93902 14.0317 5.16683 14.7466 5.73298 15.0883C6.43225 15.5318 7.24879 15.2695 7.91923 15.0042C8.78431 14.6621 9.56529 13.834 9.93055 12.9442C9.17456 12.7046 8.40175 13.0999 7.77169 13.4277C7.11999 13.7669 6.43946 14.2505 5.92762 14.8365Z" fill="#FFC356" />
    <path d="M3.03636 15.3188C2.95226 15.9577 2.9537 16.7681 3.44968 17.2604C4.0687 17.8955 5.02845 17.7737 5.76858 17.6346C6.76246 17.4478 7.8813 16.7709 8.48157 15.8692C7.7501 15.4656 6.85426 15.7227 6.12951 15.9308L6.0877 15.9427C5.27885 16.1748 4.41665 16.5489 3.69527 17.0603C4.27103 16.5409 4.69059 15.7784 4.71174 15.0095C4.73096 14.3216 4.43299 13.5854 3.79091 13.257C3.34155 13.8454 3.13104 14.6012 3.03636 15.3188Z" fill="#FFC356" />
    <path d="M2.48123 19.9991C1.68728 19.9823 0.597752 19.8876 0.153677 19.0673L0.147429 19.056C-0.207255 18.3627 0.153196 17.5523 0.440595 16.9525C0.782303 16.2396 1.24897 15.513 1.91604 14.9916C2.5562 15.5438 2.4942 16.3334 2.3034 17.0194C2.07608 17.8351 1.29078 18.5302 0.4776 18.9259C1.4191 18.5756 2.4471 18.3657 3.42513 18.3042L3.52461 18.2979C4.31039 18.2473 5.33311 18.1816 5.95838 18.7568C5.01111 19.5607 3.66639 20.024 2.48123 19.9991Z" fill="#FFC356" />
</svg>