<svg width="20" height="20" viewBox="0 0 20 20" fill="none"
    xmlns="http://www.w3.org/2000/svg">
    <path d="M14.192 13.3081L13.3082 14.1919L11.2249 12.1086L12.1086 11.2248L14.192 13.3081Z" fill="currentColor" />
    <path d="M13.2528 13.2528C13.9783 12.5273 15.1543 12.5273 15.8798 13.2528L18.414 15.7869C19.1394 16.5124 19.1394 17.6884 18.414 18.4139C17.6885 19.1394 16.5125 19.1394 15.787 18.4139L13.2528 15.8797C12.5274 15.1542 12.5274 13.9782 13.2528 13.2528ZM14.996 14.1366C14.7587 13.8992 14.3739 13.8992 14.1366 14.1366C13.8993 14.3739 13.8993 14.7586 14.1366 14.9959L16.6708 17.5301C16.9081 17.7674 17.2929 17.7674 17.5302 17.5301C17.7675 17.2928 17.7675 16.908 17.5302 16.6707L14.996 14.1366Z" fill="currentColor" />
    <path d="M12.7084 7.5C12.7084 4.62352 10.3766 2.29167 7.50008 2.29167C4.6236 2.29167 2.29175 4.62352 2.29175 7.5C2.29175 10.3765 4.6236 12.7083 7.50008 12.7083C10.3766 12.7083 12.7084 10.3765 12.7084 7.5ZM13.9584 7.5C13.9584 11.0668 11.0669 13.9583 7.50008 13.9583C3.93324 13.9583 1.04175 11.0668 1.04175 7.5C1.04175 3.93316 3.93324 1.04167 7.50008 1.04167C11.0669 1.04167 13.9584 3.93316 13.9584 7.5Z" fill="currentColor" />
</svg>