<svg width="18" height="18" viewBox="0 0 18 18" fill="none"
    xmlns="http://www.w3.org/2000/svg">
    <path d="M16.4735 8.07557L13.3095 10.8058L14.2735 14.8888C14.3266 15.1105 14.3129 15.3429 14.2341 15.5568C14.1552 15.7707 14.0148 15.9564 13.8304 16.0905C13.6461 16.2245 13.4262 16.301 13.1984 16.3101C12.9706 16.3193 12.7453 16.2607 12.5508 16.1418L9.00002 13.9565L5.44713 16.1418C5.25266 16.26 5.02757 16.318 4.80021 16.3085C4.57284 16.2991 4.35336 16.2225 4.16941 16.0886C3.98546 15.9546 3.84525 15.7692 3.76645 15.5557C3.68765 15.3422 3.67378 15.1102 3.72658 14.8888L4.69408 10.8058L1.53002 8.07557C1.35796 7.92686 1.23353 7.73077 1.17225 7.51176C1.11098 7.29276 1.11559 7.06056 1.1855 6.84416C1.2554 6.62776 1.38752 6.43675 1.56533 6.29499C1.74315 6.15323 1.95879 6.06699 2.18533 6.04705L6.33377 5.71236L7.93408 1.83955C8.0207 1.62848 8.16813 1.44794 8.35762 1.32088C8.54711 1.19382 8.77011 1.12598 8.99826 1.12598C9.22641 1.12598 9.4494 1.19382 9.6389 1.32088C9.82839 1.44794 9.97582 1.62848 10.0624 1.83955L11.662 5.71236L15.8105 6.04705C16.0375 6.06625 16.2537 6.152 16.4322 6.29357C16.6107 6.43514 16.7434 6.62622 16.8137 6.84289C16.8841 7.05955 16.8889 7.29215 16.8277 7.51155C16.7664 7.73096 16.6417 7.9274 16.4693 8.07627L16.4735 8.07557Z" fill="currentColor" />
</svg>