<svg width="20" height="14" viewBox="0 0 20 14" fill="none"
    xmlns="http://www.w3.org/2000/svg">
    <path fill-rule="evenodd" clip-rule="evenodd" d="M19.582 2.18595C19.352 1.3256 18.6744 0.647817 17.8139 0.417829C16.2542 0 9.99992 0 9.99992 0C9.99992 0 3.74581 0 2.18611 0.417829C1.3256 0.647817 0.647981 1.3256 0.417994 2.18595C0 3.74581 0 6.99988 0 6.99988C0 6.99988 0 10.2541 0.417994 11.8138C0.647981 12.6742 1.3256 13.3521 2.18611 13.5819C3.74581 13.9999 9.99992 13.9999 9.99992 13.9999C9.99992 13.9999 16.2542 13.9999 17.8139 13.5819C18.6744 13.3521 19.352 12.6742 19.582 11.8138C20 10.2541 20 6.99988 20 6.99988C20 6.99988 20 3.74581 19.582 2.18595Z" fill="#FF0000" />
    <path fill-rule="evenodd" clip-rule="evenodd" d="M8 9.99993L13.1959 7.00005L8 3.99985V9.99993Z" fill="white" />
</svg>