<svg width="100%" height="100%" viewBox="0 0 20 20" fill="none"
    xmlns="http://www.w3.org/2000/svg" preserveAspectRatio="xMidYMid meet">
    <rect width="20" height="20" rx="10" fill="#FF0000" />
    <path d="M16.8493 6.56521C16.6845 5.95325 16.202 5.47074 15.59 5.30598C14.472 5 9.99999 5 9.99999 5C9.99999 5 5.52796 5 4.40995 5.29421C3.80976 5.45897 3.31548 5.95325 3.15072 6.56521C2.85651 7.68322 2.85651 10.0016 2.85651 10.0016C2.85651 10.0016 2.85651 12.3318 3.15072 13.438C3.31548 14.05 3.79799 14.5325 4.40995 14.6973C5.53973 15.0032 9.99999 15.0032 9.99999 15.0032C9.99999 15.0032 14.472 15.0032 15.59 14.709C16.202 14.5443 16.6845 14.0618 16.8493 13.4498C17.1435 12.3318 17.1435 10.0134 17.1435 10.0134C17.1435 10.0134 17.1552 7.68322 16.8493 6.56521Z" fill="white" />
    <path d="M8.57599 12.1435L12.2948 10.0016L8.57599 7.85974V12.1435Z" fill="#FF0000" />
</svg>